<?xml version='1.0' encoding='utf-8'?>
<svg xmlns="http://www.w3.org/2000/svg" viewBox="0 0 264.15 327.33"> <g transform="translate(-203.54 -166.35)"> <path d="m228.92 460.6c4.4017 15.842 54.994 28.326 116.77 28.326s112.37-12.484 116.77-28.326h-233.54z" fill="#f95" fill-rule="evenodd"/> <path d="m226.78 267.47h238.9v193.95h-238.9z" fill="#f95" fill-rule="evenodd"/> <path transform="matrix(1.101 0 0 1.2373 -16.58 -46.203)" d="m434.37 253.33c0 12.274-47.035 22.223-105.06 22.223s-105.06-9.9497-105.06-22.223 47.035-22.223 105.06-22.223 105.06 9.9497 105.06 22.223z" fill="#ff7f2a" fill-rule="evenodd"/> <path d="m345.72 237.97c-64.194 0-117.66 14.371-119.79 32.442l-0.0701 188c1.6823 18.185 55.371 32.773 119.86 32.773s117.78-14.628 119.46-32.813l-0.15349-187.87c-2.1321-18.07-55.116-32.531-119.31-32.531z" fill="none" stroke="#000" stroke-width="5"/> <path d="m267.14 353.08c0 2.7614-2.2386 5-5 5s-5-2.2386-5-5 2.2386-5 5-5 5 2.2386 5 5z" fill="#fff" fill-rule="evenodd" opacity=".6" stroke="#fff"/> <path transform="matrix(.54545 0 0 .54545 168.8 140.85)" d="m267.14 353.08c0 2.7614-2.2386 5-5 5s-5-2.2386-5-5 2.2386-5 5-5 5 2.2386 5 5z" fill="#fff" fill-rule="evenodd" stroke="#fff"/> <path transform="matrix(.93506 0 0 .93506 76.308 17.927)" d="m267.14 353.08c0 2.7614-2.2386 5-5 5s-5-2.2386-5-5 2.2386-5 5-5 5 2.2386 5 5z" fill="#fff" fill-rule="evenodd" stroke="#fff"/> <path transform="matrix(.61039 0 0 .61039 153.21 157.21)" d="m267.14 353.08c0 2.7614-2.2386 5-5 5s-5-2.2386-5-5 2.2386-5 5-5 5 2.2386 5 5z" fill="#fff" fill-rule="evenodd" stroke="#fff"/> <path transform="matrix(.87013 0 0 .87013 135.47 55.14)" d="m267.14 353.08c0 2.7614-2.2386 5-5 5s-5-2.2386-5-5 2.2386-5 5-5 5 2.2386 5 5z" fill="#fff" fill-rule="evenodd" opacity=".8" stroke="#fff"/> <path transform="matrix(.61039 0 0 .61039 260.71 120.42)" d="m267.14 353.08c0 2.7614-2.2386 5-5 5s-5-2.2386-5-5 2.2386-5 5-5 5 2.2386 5 5z" fill="#fff" fill-rule="evenodd" opacity=".8" stroke="#fff"/> <path transform="translate(21.071 43.393)" d="m267.14 353.08c0 2.7614-2.2386 5-5 5s-5-2.2386-5-5 2.2386-5 5-5 5 2.2386 5 5z" fill="#fff" fill-rule="evenodd" opacity=".5" stroke="#fff"/> <path transform="matrix(.54545 0 0 .54545 189.87 184.24)" d="m267.14 353.08c0 2.7614-2.2386 5-5 5s-5-2.2386-5-5 2.2386-5 5-5 5 2.2386 5 5z" fill="#fff" fill-rule="evenodd" opacity=".5" stroke="#fff"/> <path transform="matrix(.93506 0 0 .93506 97.379 61.32)" d="m267.14 353.08c0 2.7614-2.2386 5-5 5s-5-2.2386-5-5 2.2386-5 5-5 5 2.2386 5 5z" fill="#fff" fill-rule="evenodd" opacity=".5" stroke="#fff"/> <path transform="matrix(.61039 0 0 .61039 174.28 200.6)" d="m267.14 353.08c0 2.7614-2.2386 5-5 5s-5-2.2386-5-5 2.2386-5 5-5 5 2.2386 5 5z" fill="#fff" fill-rule="evenodd" opacity=".5" stroke="#fff"/> <path transform="matrix(.87013 0 0 .87013 156.54 98.533)" d="m267.14 353.08c0 2.7614-2.2386 5-5 5s-5-2.2386-5-5 2.2386-5 5-5 5 2.2386 5 5z" fill="#fff" fill-rule="evenodd" opacity=".5" stroke="#fff"/> <path transform="matrix(.61039 0 0 .61039 281.78 163.81)" d="m267.14 353.08c0 2.7614-2.2386 5-5 5s-5-2.2386-5-5 2.2386-5 5-5 5 2.2386 5 5z" fill="#fff" fill-rule="evenodd" opacity=".5" stroke="#fff"/> <path d="m318.98 255.98c-15.288 6.8206-10.86 18.209 18.631 18.241 31.906 0.0343 36.023-10.312 20.778-19.251" fill="none" stroke="#f0f" stroke-width="7.3883"/> <path d="m338.86 209.57c-12.812 0-20.411 2.6373-20.411 8.13l-2.2676 48.561c16.673 5.0486 31.364 3.6586 45.357 0-0.1056-0.41861-3.3123-49.094-3.3721-49.066-1.0102-5.1139-6.4942-7.6249-19.307-7.6249z" fill="#b3b3b3" fill-rule="evenodd" stroke="#000" stroke-width="2"/> <path d="m321.12 218.27c5.9088 2.8107 12.426 2.3552 17.671 2.2678 4.6642-0.0777 10.735 1.061 17.419-2.798" fill="none" stroke="#f0f" stroke-width="1.6824"/> <path d="m361.94 167.35s-9.5046 5.351-15.872 6.6268-13.596 0.40484-21.762 0-20.459-3.4091-27.162-2.6998-12.517 4.0088-12.517 4.0088l-19.226 12.517 8.6721 3.3543s12.274-6.3368 20.453-6.6268 26.798 6.6268 26.798 6.6268h7.2813v25.116c10.796 2.4627 14.553 0.90306 19.459 0v-25.116h8.5903l13.22-16.526-7.9358-7.2813z" fill="#e6e6e6" stroke="#000" stroke-width="2"/> <path d="m332.32 191.29 6.4286 0.53572 6.4286-0.35715" fill="none" stroke="#000"/> <path d="m343.2 174.92 1.2627 3.5355" fill="none" stroke="#000"/> <path d="m338.78 175.04v3.6618" fill="none" stroke="#000"/> <path d="m333.48 174.79-0.63135 3.9143" fill="none" stroke="#000"/> <path d="m321.48 176.31s-17.245-4.2235-25.759-2.7779c-5.6055 0.9517-15.405 7.3236-15.405 7.3236" fill="none" stroke="#000"/> <path transform="matrix(.61039 0 0 .61039 142.42 213.88)" d="m267.14 353.08c0 2.7614-2.2386 5-5 5s-5-2.2386-5-5 2.2386-5 5-5 5 2.2386 5 5z" fill="#fff" fill-rule="evenodd" stroke="#fff"/> <path transform="matrix(.87013 0 0 .87013 124.69 111.81)" d="m267.14 353.08c0 2.7614-2.2386 5-5 5s-5-2.2386-5-5 2.2386-5 5-5 5 2.2386 5 5z" fill="#fff" fill-rule="evenodd" opacity=".8" stroke="#fff"/> <path transform="translate(10.285 100.07)" d="m267.14 353.08c0 2.7614-2.2386 5-5 5s-5-2.2386-5-5 2.2386-5 5-5 5 2.2386 5 5z" fill="#fff" fill-rule="evenodd" opacity=".5" stroke="#fff"/> <path transform="matrix(.54545 0 0 .54545 179.08 240.91)" d="m267.14 353.08c0 2.7614-2.2386 5-5 5s-5-2.2386-5-5 2.2386-5 5-5 5 2.2386 5 5z" fill="#fff" fill-rule="evenodd" opacity=".5" stroke="#fff"/> <path transform="matrix(.93506 0 0 .93506 86.593 117.99)" d="m267.14 353.08c0 2.7614-2.2386 5-5 5s-5-2.2386-5-5 2.2386-5 5-5 5 2.2386 5 5z" fill="#fff" fill-rule="evenodd" opacity=".5" stroke="#fff"/> <path transform="matrix(.61039 0 0 .61039 163.49 257.27)" d="m267.14 353.08c0 2.7614-2.2386 5-5 5s-5-2.2386-5-5 2.2386-5 5-5 5 2.2386 5 5z" fill="#fff" fill-rule="evenodd" opacity=".5" stroke="#fff"/> <path transform="matrix(.87013 0 0 .87013 145.76 155.21)" d="m267.14 353.08c0 2.7614-2.2386 5-5 5s-5-2.2386-5-5 2.2386-5 5-5 5 2.2386 5 5z" fill="#fff" fill-rule="evenodd" opacity=".5" stroke="#fff"/> <path transform="matrix(.61039 0 0 .61039 270.99 220.49)" d="m267.14 353.08c0 2.7614-2.2386 5-5 5s-5-2.2386-5-5 2.2386-5 5-5 5 2.2386 5 5z" fill="#fff" fill-rule="evenodd" opacity=".5" stroke="#fff"/> <path d="m238.67 212.49c-4.3425 2.5528-10.197-0.92771-14.092 2.8025-5.2509 1.5572-6.7063 8.0318-5.5161 12.785-0.0988 4.5174-5.0777 5.8647-8.6129 6.9648-4.9964 0.88698-8.3491 6.9227-5.1712 11.286 3.6211 3.6961 3.1684 9.693 6.486 13.499 2.544 0.89207 7.1045-2.3453 6.179 2.4506 2.7785 4.4341 8.3538 6.1794 13.2 7.234 4.1761 0.58552 8.3277-3.6154 9.5795-8.4775 11.143-0.35114 14.197-14.928 10.558-20.612 7.4245-3.2089 18.467-2.6316 14.981-16.766 5.4431-16.634 10.398-27.911-2.2415-32.384-13.957 1.7724-16.919 17.963-25.349 21.218z" fill="#ececec" stroke="#000"/> <path d="m259.22 199.73c-6.2087 1.747-9.407 10.299-5.3867 15.5 2.7264 2.3902 6.5624 1.5585 9.8635 1.9388 3.3111-0.94286 2.9711-5.0344 2.8607-7.7549-0.22901-4.2282-2.6427-9.2009-7.3375-9.6842z" fill="#fff" stroke="#000"/> <path d="m237 222.96c-3.4362-0.32204-5.6836 3.4988-5.3355 6.5747-0.0404 3.0628 0.62384 7.0093 3.9065 8.1885 3.0173 1.0178 6.7511 0.94799 9.2006-1.3215 1.6265-3.4715 0.86547-7.4136 0.1319-11.008-1.2635-2.8934-5.2305-4.0015-7.9034-2.4334z" fill="#fff" stroke="#000"/> <path d="m252.15 228.01c-0.98073 3.4187 3.9438 6.1313 6.4347 3.7386 3.0231-1.473 1.6112-7.2245-1.9209-6.3551-1.7771 0.23884-3.3245 1.3244-4.5139 2.6165z" fill="#fff" stroke="#000"/> <path d="m226.39 231.55c-2.5105 2.7104 4.3471 1.0858 0.14728-0.0437l-0.14269 0.0424-5e-3 1e-3z" fill="#fff" stroke="#000"/> <path d="m216.29 239.12c0.24501 3.4275 6.2268 2.8515 6.2422-0.40971-0.1424-3.7268-6.0127-2.6968-6.2422 0.40971z" fill="#fff" stroke="#000"/> <path d="m216.29 249.23c1.0124 3.1874 4.4005-2.9368 1.2078-1.8811-0.40223 0.60297-0.35381 1.6763-1.2078 1.8811z" fill="#fff" stroke="#000"/> <path d="m229.42 248.72c0.18731 2.6647 2.8705 5.5775 4.8984 2.3662 1.064-1.812-1.895-7.0004-4.646-2.24" fill="#fff" stroke="#000"/> <path d="m229.8 256.03c-2.5427-0.2383-4.2057 2.589-3.9482 4.8652-0.0299 2.2664 0.46163 5.1868 2.8907 6.0593 2.2327 0.75311 4.9957 0.70149 6.8082-0.97791 1.2036-2.5688 0.64042-5.4859 0.0976-8.1458-0.93496-2.1411-3.8704-2.961-5.8484-1.8007z" fill="#fff" stroke="#000" stroke-width=".73998"/> </g> </svg>