<?xml version='1.0' encoding='utf-8'?>
<svg xmlns="http://www.w3.org/2000/svg" clip-rule="evenodd" fill-rule="evenodd" stroke-linecap="round" stroke-linejoin="round" stroke-miterlimit="1.5" version="1.1" viewBox="0 0 1e3 1400"> <g fill="#4b3d2a" stroke="#000" stroke-width="1.5px"> <path d="m442.08 1160.1c-14.504 25.29-28.762 50.38-29.901 64.49-3.923 16.15 7.103 23.79 27.634 26.03 12.032 1.64 23.496 0.35 33.971-6.05l15.82-52.35c3.788-10.73 4.737-22.03 2.041-34.06l-49.565 1.94z"/> <path d="m493.16 1173.3 0.849 23.29c-3.069 18.67-6.061 37.38-11.764 55-20.096 13.1-43.08 12.55-68.189 0.49-3.788-7.19-4.012-15.89-2.869-25.15 0.085 15.68 10.079 21.83 32.782 23.28 9.251 0.59 22.99-1.18 30.905-6.4 7.292-22.97 13.328-46.5 18.286-70.51z"/> </g> <g transform="matrix(-1 0 0 1 1000.8 -.42089)" fill="#4b3d2a" stroke="#000" stroke-width="1.5px"> <path d="m442.08 1160.1c-14.504 25.29-28.762 50.38-29.901 64.49-3.923 16.15 7.103 23.79 27.634 26.03 12.032 1.64 23.496 0.35 33.971-6.05l15.82-52.35c3.788-10.73 4.737-22.03 2.041-34.06l-49.565 1.94z"/> <path d="m493.16 1173.3 0.849 23.29c-3.069 18.67-6.061 37.38-11.764 55-20.096 13.1-43.08 12.55-68.189 0.49-3.788-7.19-4.012-15.89-2.869-25.15 0.085 15.68 10.079 21.83 32.782 23.28 9.251 0.59 22.99-1.18 30.905-6.4 7.292-22.97 13.328-46.5 18.286-70.51z"/> </g> <path d="m338.3 698.4c7.112 18.775 18.411 25.028 37.386 8.324 14.628-36.736 25.107-75.075 27.398-116.41-11.716-22.12-24.027-20.003-36.61-6.87-20.571 29.059-28.435 69.203-28.174 114.96z" fill="#dab299"/> <path d="m419.63 503.44-12.975-14.112c-25.191-1.096-35.742 5.059-42.496 13.095-12.291 30.174-13.539 64.058-13.184 94.636 14.943 14.628 33.303 15.855 53.461 10.033 19.158-28.657 22.365-63.984 15.194-103.65z" fill="#4d7db3" stroke="#4d7db3" stroke-width="1px"/> <g transform="matrix(-1 0 0 1 1000.1 -5.2345)"> <path d="m338.3 698.4c7.112 18.775 18.411 25.028 37.386 8.324 17.957-37.031 22.187-76.673 27.398-116.41-11.716-22.12-24.027-20.003-36.61-6.87-17.013 32.087-27.984 67.239-28.174 114.96z" fill="#dab299"/> </g> <g transform="matrix(-1 0 0 1 1000.9 6.0644)"> <path d="m419.63 503.44-12.975-14.112c-24.615-4.549-35.613 4.29-42.496 13.095-12.291 30.174-13.539 64.058-13.184 94.636 14.943 14.628 33.303 15.855 53.461 10.033 19.158-28.657 22.365-63.984 15.194-103.65z" fill="#4d7db3" stroke="#4d7db3" stroke-width="1px"/> </g> <path d="m333.42 865.54c-6.724-10.455-12.671-21.219-12.154-34.551-10.294-10.111 5.051-77.456 15.679-129.35 6.763-15.227 15.285-22.174 26.087-18.39 11.679 2.414 14.447 11.987 12.104 25.667l-21.762 79.54c4.643 18.807 13.166 44.396 8.66 46.517-3.993 1.879-17.256-11.453-17.407-31.878-7.147 2.771-10.549 11.372-10.677 20.065-0.119 8.1 1.795 25.573 7.158 34.199 2.515 7.056-2.189 12.793-7.688 8.183z" fill="#dab299"/> <path d="m341.27 859.22c5.467-6.451 4.506-26.724 3.354-56.346-8.207 0.681-10.879 9.711-10.818 23.377 0.233 14.345 2.942 24.823 7.464 32.969z" fill="#c69d85"/> <g transform="matrix(-1 0 0 1 1000.5 .95127)"> <path d="m333.42 865.54c-6.724-10.455-14.466-21.872-13.949-35.204-5.007-32.128 7.4-79.237 17.474-128.7 6.763-15.227 15.285-22.174 26.087-18.39 11.679 2.414 14.447 11.987 12.104 25.667l-21.762 79.54c4.643 18.807 13.166 44.396 8.66 46.517-3.993 1.879-17.256-11.453-17.407-31.878-7.147 2.771-10.549 11.372-10.677 20.065-0.119 8.1 1.795 25.573 7.158 34.199 2.515 7.056-2.189 12.793-7.688 8.183z" fill="#dab299"/> <path d="m341.27 859.22c6.095-10.269 5.347-31.667 3.362-56.222-8.207 0.681-10.887 9.587-10.826 23.253 0.835 15.487 3.686 25.488 7.464 32.969z" fill="#c69d85"/> <g transform="matrix(.98055 0 0 1 5.3156 4.718)"> <path d="m335.69 718.82 33.424 7.439 16.932-67.795-37.62-9.466-12.736 69.822z" fill="#dab299"/> </g> </g> <path d="m408.71 735.22c59.855 27.479 121.09 27.105 183.7-1.124 5.213-2.386 6.668-10.843 6.221-22.372l5.8-216.88-6.197 142.43s37.884-111.23 6.197-142.43c-62.621-36.527-198.82-14.509-199.25-3.753-25.523 50.511-10.12 92.74-2.627 134.96 5.296 29.838 0.29 60.081 0.434 90.123-0.479 8.186 0.537 15.222 5.721 19.052z" fill="#4d7db3" stroke="#4d7db3" stroke-width="3px"/> <path d="m410.43 994.8c28.615-34.886 56.665-31.244 84.324-0.947l0.497 169.04c-24.34 13.55-42.065 17.29-60.662 2.55l-24.159-170.64z" fill="#ad965f" stroke="#ad965f" stroke-width="1px"/> <path d="m501.6 842.85-105.1 2.707c7.07 102.83 0.174 41.011 13.002 143.84 9.409 45.239 45.573 69.579 84.005 21.389l6.559-158.81 1.538-9.13z" fill="#ad965f" stroke="#ad965f" stroke-width="2px"/> <g transform="matrix(-1 0 0 1 1000.2 11.648)"> <path d="m416.66 992.72c28.615-34.887 50.438-29.169 78.097 1.128l0.108 158.02c-24.34 13.55-42.065 13.26-60.662-1.48l-17.543-157.66z" fill="#ad965f" stroke="#ad965f" stroke-width="1px"/> </g> <path d="m502.38 841.34c3.058 105.97 0.927 63.43 3.173 165.97 16.276 45.17 49.203 44.53 77.009 6.55l19.676-174.76-99.858 2.238z" fill="#ad965f" stroke="#ad965f" stroke-width="1px"/> <path d="m408.31 756.21c-10.964 10.276-15.216 50.062-12.643 91.241 19.555 75.55 80.078 66.869 107.14-4.692 18.042 72.477 81.953 59.35 100.33-4.791 4.197-25.553 1.964-52.705-7.531-81.681l-2.114-22.948c-59.139 29.525-120.41 29.291-183.65 1.645l-1.545 21.226z" fill="#ad965f"/> <path d="m488.15 778.25c-1.331 15.641-2.579 31.292 0.547 47.457 3.434 6.739 11.492 8.604 21.325 8.598-0.414-18.842-0.728-37.704 0.163-56.806-7.345 1.102-14.69 1.205-22.035 0.751z" fill="none" stroke="#4b3d2a" stroke-width="2px"/> <path d="m562.56 768.44c0.593 25.598 14.996 48.464 39.184 69.396 7.142-34.763 0.061-60.248-6.357-81.403-10.135 5.751-21.135 9.628-32.827 12.007z" fill="none" stroke="#4b3d2a" stroke-width="1px"/> <path d="m439.91 768.67c-4.261 32.591-22.788 60.533-43.434 76.891-4.554-31.743-0.26-68.712 10.92-89.824 10.149 6.516 21.068 10.567 32.514 12.933z" fill="none" stroke="#4b3d2a" stroke-width="1px"/> <path d="m410.17 736.65-0.653 20.051c58.364 32.269 122.64 29.338 185.18-0.567l-0.641-22.544c-58.515 27.268-119.61 30.207-183.88 3.06z" fill="#875439" stroke="#262626" stroke-width="2.5px"/> <path d="m478.83 754.46-2.267 23.884c15.327 2.093 31.295 2.103 45.857-0.099l0.079-23.637c-14.488 1.916-28.921 0.708-43.669-0.148z" fill="#595959" stroke="#595959" stroke-width="2.5px"/> <path d="m440.31 485.85c19.61-13.549 27.139-28.954 24.664-57.861l66.876-0.054c-6.409 34.179 9.849 54.153 28.87 61.254-44.751 39.56-81.31 38.157-120.41-3.339z" fill="#c69d85" stroke="#dab299" stroke-width="1px"/> <path d="m390.29 300.24c-0.441-12.44-3.101-25.02-19.426-17.876-17.405 7.617-6.367 68 21.454 75.592" fill="#dab299" stroke="#262626" stroke-width="1.5px"/> <g transform="translate(3.9511 -3.8033)"> <path d="m386.14 313.47c-6.546-4.318-11.011-2.978-13.395 4.021-2.996 9.228 0.249 17.118 8.183 24.004 3.889 0.344 6.475-1.194 6.851-5.925l-1.639-22.1z" fill="#875439" stroke="#262626" stroke-width="2px"/> </g> <g transform="matrix(-1 0 0 1 1000.7 6.5428)"> <path d="m389.01 294.05c6.409-22.58-0.618-21.75-17.906-16.697-16.963 4.958-11.181 73.137 22.066 80.821" fill="#dab299" stroke="#262626" stroke-width="2px"/> </g> <g transform="matrix(-1 0 0 1 998.31 -1.2014)"> <path d="m386.14 313.47c-6.546-4.318-11.011-2.978-13.395 4.021-2.996 9.228 0.249 17.118 8.183 24.004 3.889 0.344 6.475-1.194 6.851-5.925l-1.639-22.1z" fill="#875439" stroke="#262626" stroke-width="2px"/> </g> <path d="m419.6 223.6c-54.844 57.875-41.681 220.77 80.226 229.62 84.489 6.114 159.96-129.14 79.26-230.47-28.16 15.271-59.313 21.917-94.11 18.06l24.232-13.375c-29.422 11.784-59.277 10.919-89.608-3.839z" fill="#dab299" stroke="#000" stroke-width="3px"/> <path d="m402.62 130.88c14.687-0.208 28.14-1.425 42.951-1.763 4.807-0.11-10.95-6.938 14.366-0.239 8.723 2.308 17.464 3.518 25.954 4.189 5.043 0.399 0.046-8.214 14.807 0.743 15.816 9.597 34.854-0.034 45.899 4.998 9.742 3.941 17.93 8.503 24.344 13.774 5.059 4.158 5.905-13.499 11.759 13.84 0.647 3.024 2.591 5.581 3.349 8.587 25.419 17.4 38.949 43.005 36.652 79.534-3.323 27.487-6.647 34.367-9.971 34.897-14.06-20.257-26.37-41.514-32.222-66.461-29.047 16.006-60.489 22.382-94.872 16.929l24.657-14.106c-29.849 11.934-59.974 13.947-90.603-2.228-15.922 17.988-25.684 41.324-31.716 67.897-20.846-42.266-16.191-81.416 21.512-116.53-10.794-10.137-12.854-24.948-6.866-44.064z" fill="#4b3d2a" stroke="#4b3d2a" stroke-width="5px"/> <path d="m502.94 295.7c-17.232 53.974-19.895 82.581 6.907 65.624" fill="none" stroke="#000" stroke-width="3px"/> <g fill="#4b3d2a" stroke="#4b3d2a" stroke-width="5px"> <path d="m390.2 294.42c15.95 72.473 48.777 123.89 88.134 141.23 8.33 3.669 11.219-16.198 20.619-15.268 9.208-1.168 11.536 18.276 19.296 15.464 54.095-19.609 81.298-80.891 90.102-155.01 19.865 112.4-11.361 219.77-104.49 226.48-99.629 1.628-119.24-126.89-113.66-212.9z"/> <path d="m436.49 400.96c35.093-24.098 123.78-25.874 126.28 5.478l16.167-16.16c-22.014-12.813-46.832-20.429-74.166-18.485-31.452-1.795-56.426 8.13-78.116 16.488l9.833 12.679z"/> </g> <g transform="translate(-.73194 7.0267)"> <path d="m465.14 390.88c24.299 11.562 43.036 19.931 76.511-0.451" fill="none" stroke="#000" stroke-width="5px"/> </g> <path d="m459 351.82c-17.288-3.806-27.198-15.274-24.587-35.991 2.264-22.65 15.788-31.094 33.905-30.992 13.748 4.77 20.783 16.057 21.258 33.71-2.141 21.318-14.06 32.175-30.576 33.273z" fill="#fff" stroke="#000" stroke-width="3px"/> <ellipse cx="466.59" cy="322.14" rx="13.607" ry="13.796" stroke="#000" stroke-width="3px"/> <g transform="matrix(.81967 0 0 1 84.207 0)"> <ellipse cx="462.5" cy="317.68" rx="4.465" ry="4.245" fill="#fff" stroke="#fff" stroke-width="3.28px"/> </g> <g transform="translate(75.85 .14494)"> <path d="m459 351.82c-34.636 1.139-29.033-66.624 9.318-66.983 16.527-0.155 21.611 15.9 21.258 33.71-0.398 20.156-12.733 31.797-30.576 33.273z" fill="#fff" stroke="#000" stroke-width="3px"/> </g> <g transform="translate(65.901 -.61171)"> <ellipse cx="466.59" cy="322.14" rx="13.607" ry="13.796" stroke="#000" stroke-width="3px"/> </g> <g transform="translate(-.73194 -1.3175)"> <ellipse cx="537.2" cy="318.88" rx="3.684" ry="4.39" fill="#fff" stroke="#fff" stroke-width="3px"/> </g> <g transform="matrix(.9753 -.2209 .2209 .9753 -45.988 128.54)"> <path d="m583.88 286.21c-12.057-17.543-24.604-34.625-57.553-32.452-8.076 3.164-10.289 13.998 1.307 14.829 23.893-3.771 41.723 3.825 56.246 17.623z" fill="#4b3d2a" stroke="#4b3d2a" stroke-width="4px"/> </g> <g transform="matrix(.98142 .19187 -.19187 .98142 60.071 -81.409)"> <path d="m420.67 286.13c5.552-19.536 21.727-32.276 56.164-33.335 4.002 6.831 4.421 12.408 0.616 16.506-27.885-3.808-46.583 2.043-56.78 16.829z" fill="#4b3d2a" stroke="#4b3d2a" stroke-width="4px"/> </g> </svg>