<?xml version='1.0' encoding='utf-8'?>
<svg xmlns="http://www.w3.org/2000/svg" viewBox="0 0 935.21 588.35"> <g transform="translate(-49.305 -115.51)"> <path d="m57.129 157.7-7.3243 5.127 0.73243 452.64 1.4649 6.5918 5.127 1.4649 658.76 62.256 0.42904-115.72-594.73-47.608-6.5918-5.8594 2.9297-247.56 3.6621-8.7891 594 24.903 1.4648-106.93-659.92-20.508z" fill="#d7d2ce" fill-rule="evenodd" stroke="#000"/> <path d="m714.71 285.88-592.48-25.895-3.1074 7.2507-3.1074 250.67 4.1432 4.1432 595.59 47.647-1.0358-283.81z" fill-rule="evenodd" stroke="#000"/> <path d="m145.01 280.7 456.79 19.68v243.42l-458.86-38.325 2.0716-224.77z" fill="#262932" fill-rule="evenodd" stroke="#000"/> <path d="m717.78 570.79 145.75 10.986 5.8594-4.3946-2.1973-277.59-7.3243-8.0567-144.29-5.8594 2.9297-107.67 163.33 2.1973 5.8594 10.986-0.73243 507.57-9.5216 4.3946-161.87-16.846 2.1973-115.72z" fill="#b4b4b6" fill-rule="evenodd" stroke="#000"/> <path d="m734.62 622.06-0.73242 39.551 5.127 7.3243 127.44 11.719 5.8594-4.3946 0.73243-43.213-5.8594-2.9297-128.17-10.986-4.3946 2.9297z" fill="none" stroke="#000"/> <path d="m715.74 286.4 145.01 5.179 7.2507 10.358 1.0358 275.01-6.2149 5.179-147.6-11.912 0.5179-283.81z" fill="#181514" fill-rule="evenodd" stroke="#000"/> <path transform="translate(-9.3222 -6.4034)" d="m772.34 325.43a13.55 13.184 0 1 1-27.1 0 13.55 13.184 0 1 1 27.1 0z" fill="#999"/> <path transform="translate(72.343 -4.2061)" d="m772.34 325.43a13.55 13.184 0 1 1-27.1 0 13.55 13.184 0 1 1 27.1 0z" fill="#999"/> <path transform="translate(31.694 -5.3047)" d="m772.34 325.43a13.55 13.184 0 1 1-27.1 0 13.55 13.184 0 1 1 27.1 0z" fill="#999"/> <path transform="translate(72.71 81.854)" d="m772.34 325.43a13.55 13.184 0 1 1-27.1 0 13.55 13.184 0 1 1 27.1 0z" fill="#999"/> <path transform="translate(31.694 81.122)" d="m772.34 325.43a13.55 13.184 0 1 1-27.1 0 13.55 13.184 0 1 1 27.1 0z" fill="#999"/> <path transform="translate(-8.956 78.558)" d="m772.34 325.43a13.55 13.184 0 1 1-27.1 0 13.55 13.184 0 1 1 27.1 0z" fill="#999"/> <path transform="translate(-10.055 -7.502)" d="m832.04 357.47a30.945 9.7047 0 1 1-61.89 0 30.945 9.7047 0 1 1 61.89 0z" fill="#999"/> <path transform="translate(-7.4912 197.58)" d="m772.34 325.43a13.55 13.184 0 1 1-27.1 0 13.55 13.184 0 1 1 27.1 0z" fill="#999"/> <path transform="translate(32.06 199.78)" d="m772.34 325.43a13.55 13.184 0 1 1-27.1 0 13.55 13.184 0 1 1 27.1 0z" fill="#999"/> <path transform="translate(71.611 201.97)" d="m772.34 325.43a13.55 13.184 0 1 1-27.1 0 13.55 13.184 0 1 1 27.1 0z" fill="#999"/> <path transform="matrix(.83784 0 0 .76389 154.38 196.96)" d="m772.34 325.43a13.55 13.184 0 1 1-27.1 0 13.55 13.184 0 1 1 27.1 0z" fill="#999"/> <path transform="matrix(.83784 0 0 .76389 196.12 199.52)" d="m772.34 325.43a13.55 13.184 0 1 1-27.1 0 13.55 13.184 0 1 1 27.1 0z" fill="#999"/> <path transform="matrix(.83784 0 0 .76389 112.99 194.03)" d="m772.34 325.43a13.55 13.184 0 1 1-27.1 0 13.55 13.184 0 1 1 27.1 0z" fill="#999"/> <path transform="matrix(1.3919 0 0 .76389 -306.5 233.22)" d="m772.34 325.43a13.55 13.184 0 1 1-27.1 0 13.55 13.184 0 1 1 27.1 0z" fill="#999"/> <path transform="matrix(1.3919 0 0 .76389 -223.74 238.34)" d="m772.34 325.43a13.55 13.184 0 1 1-27.1 0 13.55 13.184 0 1 1 27.1 0z" fill="#999"/> <path transform="matrix(1.3919 0 0 .76389 -267.32 235.05)" d="m772.34 325.43a13.55 13.184 0 1 1-27.1 0 13.55 13.184 0 1 1 27.1 0z" fill="#999"/> <path transform="matrix(.39325 0 0 .37774 495.96 352.85)" d="m812.63 549.19c1.0833 1.1751-1.0496 2.0401-1.9531 1.8006-2.4486-0.64907-2.7172-3.8301-1.648-5.7068 1.9125-3.357 6.5334-3.5715 9.4605-1.4954 4.2957 3.0468 4.453 9.2739 1.3428 13.214-4.1454 5.2518-12.028 5.346-16.968 1.1902-6.2167-5.2297-6.2451-14.788-1.0376-20.722 6.307-7.1864 17.552-7.1477 24.475-0.885 8.1591 7.3804 8.0525 20.318 0.73241 28.229-8.4514 9.1337-23.085 8.9588-31.983 0.57981-10.11-9.5207-9.8661-25.854-0.42723-35.736 10.589-11.086 28.623-10.774 39.49-0.27463 12.064 11.656 11.683 31.393 0.12205 43.244" fill="#b3b3b3" fill-rule="evenodd" stroke="#000" stroke-width="2.5946"/> <path d="m56.97 157.44 822.43 22.788h5.179l5.179 12.43-3.1074 506.51 97.366-164.69v-401.89l-7.2507-4.1432-685.71-12.43-234.09 41.432z" fill="#434750" fill-rule="evenodd" stroke="#000"/> <path d="m881.47 184.37 96.33-53.862" fill="none" stroke="#000"/> </g> </svg>