<?xml version='1.0' encoding='utf-8'?>
<svg xmlns="http://www.w3.org/2000/svg" enable-background="new 0 0 2000 2000" version="1.1" viewBox="0 0 2e3 2e3"> <style type="text/css">.st0{fill:url(#i);} .st1{fill:url(#h);} .st2{fill:url(#g);} .st3{fill:url(#f);} .st4{fill:url(#e);} .st5{fill:url(#d);} .st6{fill:url(#c);} .st7{fill:url(#b);} .st8{fill:url(#a);} .st9{fill:url(#k);} .st10{fill:url(#j);} .st11{fill:url(#SVGID_12_);} .st12{fill:url(#SVGID_13_);} .st13{fill:url(#SVGID_14_);} .st14{fill:#231F20;} .st15{fill:url(#SVGID_15_);} .st16{fill:url(#SVGID_16_);} .st17{fill:url(#SVGID_17_);} .st18{fill:url(#SVGID_18_);} .st19{fill:url(#SVGID_19_);} .st20{fill:url(#SVGID_20_);} .st21{fill:url(#SVGID_21_);} .st22{fill:url(#SVGID_22_);} .st23{fill:url(#SVGID_23_);} .st24{fill:url(#SVGID_24_);} .st25{fill:url(#SVGID_25_);} .st26{fill:url(#SVGID_26_);} .st27{fill:url(#SVGID_27_);} .st28{fill:url(#SVGID_28_);} .st29{fill:url(#SVGID_29_);} .st30{fill:url(#SVGID_30_);} .st31{fill:url(#SVGID_31_);} .st32{fill:url(#SVGID_32_);} .st33{fill:url(#SVGID_33_);} .st34{fill:url(#SVGID_34_);} .st35{fill:url(#SVGID_35_);} .st36{fill:url(#SVGID_36_);} .st37{fill:url(#SVGID_37_);} .st38{fill:url(#SVGID_38_);} .st39{fill:url(#SVGID_39_);} .st40{fill:url(#SVGID_40_);} .st41{fill:url(#SVGID_41_);} .st42{fill:url(#SVGID_42_);} .st43{fill:url(#SVGID_43_);} .st44{fill:url(#SVGID_44_);} .st45{fill:url(#SVGID_45_);} .st46{fill:url(#SVGID_46_);} .st47{fill:url(#SVGID_47_);} .st48{fill:url(#SVGID_48_);} .st49{fill:url(#SVGID_49_);} .st50{fill:url(#SVGID_50_);} .st51{fill:url(#SVGID_51_);} .st52{fill:url(#SVGID_52_);} .st53{fill:url(#SVGID_53_);} .st54{fill:url(#SVGID_54_);} .st55{fill:url(#SVGID_55_);} .st56{fill:url(#SVGID_56_);} .st57{fill:url(#SVGID_57_);} .st58{fill:url(#SVGID_58_);} .st59{fill:url(#SVGID_59_);} .st60{fill:url(#SVGID_60_);} .st61{fill:url(#SVGID_61_);} .st62{fill:url(#SVGID_62_);} .st63{fill:url(#SVGID_63_);} .st64{fill:url(#SVGID_64_);} .st65{fill:url(#SVGID_65_);} .st66{fill:url(#SVGID_66_);} .st67{fill:url(#SVGID_67_);} .st68{fill:url(#SVGID_68_);} .st69{fill:url(#SVGID_69_);} .st70{fill:url(#SVGID_70_);} .st71{fill:url(#SVGID_71_);} .st72{fill:url(#SVGID_72_);} .st73{fill:url(#SVGID_73_);} .st74{fill:url(#SVGID_74_);} .st75{fill:url(#SVGID_75_);} .st76{fill:url(#SVGID_76_);} .st77{fill:url(#SVGID_77_);} .st78{fill:url(#SVGID_78_);} .st79{fill:url(#SVGID_79_);} .st80{fill:url(#SVGID_80_);} .st81{fill:url(#SVGID_81_);} .st82{fill:url(#SVGID_82_);} .st83{fill:url(#SVGID_83_);} .st84{fill:url(#SVGID_84_);} .st85{fill:url(#SVGID_85_);} .st86{fill:url(#SVGID_86_);} .st87{fill:url(#SVGID_87_);} .st88{fill:url(#SVGID_88_);} .st89{fill:url(#SVGID_89_);} .st90{fill:url(#SVGID_90_);} .st91{fill:url(#SVGID_91_);} .st92{fill:url(#SVGID_92_);} .st93{fill:url(#SVGID_93_);} .st94{fill:url(#SVGID_94_);} .st95{fill:url(#SVGID_95_);} .st96{fill:url(#SVGID_96_);} .st97{fill:url(#SVGID_97_);} .st98{fill:url(#SVGID_98_);} .st99{fill:url(#SVGID_99_);} .st100{fill:url(#SVGID_100_);} .st101{fill:url(#SVGID_101_);} .st102{fill:url(#SVGID_102_);} .st103{fill:url(#SVGID_103_);} .st104{fill:url(#SVGID_104_);} .st105{fill:url(#SVGID_105_);} .st106{fill:url(#SVGID_106_);} .st107{fill:url(#SVGID_107_);} .st108{fill:url(#SVGID_108_);} .st109{fill:url(#SVGID_109_);} .st110{fill:url(#SVGID_110_);} .st111{fill:url(#SVGID_111_);} .st112{fill:url(#SVGID_112_);} .st113{fill:url(#SVGID_113_);} .st114{fill:url(#SVGID_114_);} .st115{fill:url(#SVGID_115_);} .st116{fill:url(#SVGID_116_);} .st117{fill:url(#SVGID_117_);} .st118{fill:url(#SVGID_118_);} .st119{fill:url(#SVGID_119_);} .st120{fill:url(#SVGID_120_);} .st121{fill:url(#SVGID_121_);} .st122{fill:url(#SVGID_122_);} .st123{fill:url(#SVGID_123_);} .st124{fill:url(#SVGID_124_);} .st125{fill:url(#SVGID_125_);} .st126{fill:url(#SVGID_126_);} .st127{fill:url(#SVGID_127_);} .st128{fill:#FFFFFF;} .st129{fill:url(#SVGID_128_);} .st130{fill:url(#SVGID_129_);} .st131{fill:url(#SVGID_130_);} .st132{fill:url(#SVGID_131_);} .st133{fill:url(#SVGID_132_);} .st134{fill:url(#SVGID_133_);} .st135{fill:url(#SVGID_134_);} .st136{fill:url(#SVGID_135_);} .st137{fill:url(#SVGID_136_);} .st138{fill:url(#SVGID_137_);} .st139{fill:url(#SVGID_138_);} .st140{fill:url(#SVGID_139_);} .st141{fill:url(#SVGID_140_);} .st142{fill:url(#SVGID_141_);} .st143{fill:url(#SVGID_142_);} .st144{fill:url(#SVGID_143_);} .st145{fill:url(#SVGID_144_);}</style> <switch> <g> <linearGradient id="i" x1="912.17" x2="1437.6" y1="1239" y2="1239" gradientUnits="userSpaceOnUse"> <stop stop-color="#E85D7E" offset="0"/> <stop stop-color="#D13A55" offset="1"/> </linearGradient> <path class="st0" d="m1340.8 1125.8h-53.6c-29.1 0-52.6-23.6-52.6-52.6v-95.1h-119.3v95.1c0 29.1-23.6 52.6-52.6 52.6h-53.7c-16.7 0-32.4 4.2-46.1 11.7-8.2 18.2-21.2 37.8-38.3 56.6 63.3 3 112.7 27.6 112.7 57.5s-49.4 54.5-112.7 57.5c42.7 46.9 60.2 99.2 39.1 120.3-10.7 10.7-29.5 11.5-51.5 4.1v8c0 32.4 26.3 58.7 58.7 58.7h408c32.4 0 58.7-26.3 58.7-58.7v-218.7c0-53.7-43.3-97-96.8-97z"/> <linearGradient id="h" x1="728.09" x2="843.63" y1="1125.7" y2="1125.7" gradientUnits="userSpaceOnUse"> <stop stop-color="#50C29F" offset="0"/> <stop stop-color="#35A49C" offset="1"/> </linearGradient> <ellipse class="st1" cx="785.9" cy="1125.7" rx="57.8" ry="125.7"/> <linearGradient id="g" x1="728.09" x2="843.63" y1="1377.2" y2="1377.2" gradientUnits="userSpaceOnUse"> <stop stop-color="#50C29F" offset="0"/> <stop stop-color="#35A49C" offset="1"/> </linearGradient> <ellipse class="st2" cx="785.9" cy="1377.2" rx="57.8" ry="125.7"/> <linearGradient id="f" x1="785.86" x2="1037.3" y1="1251.5" y2="1251.5" gradientUnits="userSpaceOnUse"> <stop stop-color="#50C29F" offset="0"/> <stop stop-color="#35A49C" offset="1"/> </linearGradient> <ellipse class="st3" cx="911.6" cy="1251.5" rx="125.7" ry="57.8"/> <linearGradient id="e" x1="534.4" x2="785.86" y1="1251.5" y2="1251.5" gradientUnits="userSpaceOnUse"> <stop stop-color="#50C29F" offset="0"/> <stop stop-color="#35A49C" offset="1"/> </linearGradient> <ellipse class="st4" cx="660.1" cy="1251.5" rx="125.7" ry="57.8"/> <linearGradient id="d" x1="599.09" x2="794.82" y1="1162.6" y2="1162.6" gradientUnits="userSpaceOnUse"> <stop stop-color="#FFBC59" offset="0"/> <stop stop-color="#FF9B4E" offset="1"/> </linearGradient> <path class="st5" d="m737.8 1121.7c49.1 49.1 70.6 107.2 48.1 129.8-22.6 22.6-80.7 1-129.8-48.1s-70.6-107.2-48.1-129.8c22.6-22.5 80.7-1 129.8 48.1z"/> <linearGradient id="c" x1="776.9" x2="972.63" y1="1340.4" y2="1340.4" gradientUnits="userSpaceOnUse"> <stop stop-color="#FFBC59" offset="0"/> <stop stop-color="#FF9B4E" offset="1"/> </linearGradient> <path class="st6" d="m915.6 1299.5c49.1 49.1 70.6 107.2 48.1 129.8-22.6 22.6-80.7 1-129.8-48.1s-70.6-107.2-48.1-129.8c22.6-22.5 80.7-1 129.8 48.1z"/> <linearGradient id="b" x1="776.9" x2="972.63" y1="1162.6" y2="1162.6" gradientUnits="userSpaceOnUse"> <stop stop-color="#FFBC59" offset="0"/> <stop stop-color="#FF9B4E" offset="1"/> </linearGradient> <path class="st7" d="m915.6 1203.4c-49.1 49.1-107.2 70.6-129.8 48.1-22.6-22.6-1-80.7 48.1-129.8s107.2-70.6 129.8-48.1c22.5 22.6 1 80.7-48.1 129.8z"/> <linearGradient id="a" x1="599.09" x2="794.82" y1="1340.4" y2="1340.4" gradientUnits="userSpaceOnUse"> <stop stop-color="#FFBC59" offset="0"/> <stop stop-color="#FF9B4E" offset="1"/> </linearGradient> <path class="st8" d="m737.8 1381.2c-49.1 49.1-107.2 70.6-129.8 48.1-22.6-22.6-1-80.7 48.1-129.8s107.2-70.6 129.8-48.1c22.5 22.6 1 80.7-48.1 129.8z"/> <path class="st14" d="m1188.9 1480.6c-7.7 0-14-6.3-14-14v-966.6c0-7.7 6.3-14 14-14s14 6.3 14 14v966.6c0 7.8-6.3 14-14 14z"/> <path class="st14" d="m1111.9 1474.4c-0.7 0-1.5-0.1-2.2-0.2-7.6-1.2-12.8-8.4-11.6-16.1l154.1-954.3c1.2-7.6 8.4-12.8 16.1-11.6 7.6 1.2 12.8 8.4 11.6 16.1l-154.1 954.3c-1.3 6.9-7.2 11.8-13.9 11.8z"/> <path class="st14" d="m1265.9 1474.4c-6.7 0-12.7-4.9-13.8-11.8l-154.1-954.2c-1.2-7.6 4-14.8 11.6-16.1 7.6-1.2 14.8 4 16.1 11.6l154.1 954.3c1.2 7.6-4 14.8-11.6 16.1-0.8 0.1-1.5 0.1-2.3 0.1z"/> <path class="st14" d="m799.9 1265.5c-21.2 0-40.2-16-53.6-45-11.7-25.5-18.2-59.2-18.2-94.7s6.5-69.2 18.2-94.7c13.3-29 32.4-45 53.6-45s40.2 16 53.6 45c11.7 25.5 18.2 59.2 18.2 94.7s-6.5 69.2-18.2 94.7c-13.4 29-32.4 45-53.6 45zm0-251.5c-18.3 0-43.8 42.5-43.8 111.7s25.5 111.7 43.8 111.7 43.8-42.5 43.8-111.7-25.6-111.7-43.8-111.7z"/> <path class="st14" d="m799.9 1516.9c-21.2 0-40.2-16-53.6-45-11.7-25.5-18.2-59.2-18.2-94.7s6.5-69.2 18.2-94.7c13.3-29 32.4-45 53.6-45s40.2 16 53.6 45c11.7 25.5 18.2 59.2 18.2 94.7s-6.5 69.2-18.2 94.7c-13.4 29-32.4 45-53.6 45zm0-251.4c-18.3 0-43.8 42.5-43.8 111.7s25.5 111.7 43.8 111.7 43.8-42.5 43.8-111.7c-0.1-69.2-25.6-111.7-43.8-111.7z"/> <path class="st14" d="m925.6 1323.2c-35.6 0-69.2-6.5-94.7-18.2-29-13.3-45-32.4-45-53.6s16-40.2 45-53.6c25.5-11.7 59.2-18.2 94.7-18.2s69.2 6.5 94.7 18.2c29 13.3 45 32.4 45 53.6s-16 40.2-45 53.6c-25.5 11.8-59.2 18.2-94.7 18.2zm0-115.5c-69.2 0-111.7 25.5-111.7 43.8s42.5 43.8 111.7 43.8 111.7-25.5 111.7-43.8-42.5-43.8-111.7-43.8z"/> <path class="st14" d="m674.1 1323.2c-35.6 0-69.2-6.5-94.7-18.2-29-13.3-45-32.4-45-53.6s16-40.2 45-53.6c25.5-11.7 59.2-18.2 94.7-18.2s69.2 6.5 94.7 18.2c29 13.3 45 32.4 45 53.6s-16 40.2-45 53.6c-25.5 11.8-59.1 18.2-94.7 18.2zm0-115.5c-69.2 0-111.7 25.5-111.7 43.8s42.5 43.8 111.7 43.8 111.7-25.5 111.7-43.8-42.4-43.8-111.7-43.8z"/> <path class="st14" d="m774.8 1274.4c-10.4 0-22.1-2.3-34.7-7-26.4-9.8-54.7-29-79.9-54.1-25.1-25.1-44.4-53.5-54.1-79.9-11.1-29.9-8.9-54.7 6.1-69.7s39.8-17.2 69.7-6.1c26.4 9.8 54.7 29 79.9 54.1 25.1 25.1 44.4 53.5 54.1 79.9 11.1 29.9 8.9 54.7-6.1 69.7-8.7 8.7-20.7 13.1-35 13.1zm-127.6-195.7c-6.7 0-12 1.6-15.2 4.9-12.9 12.9-0.9 61 48.1 110 37 37 73.5 52.9 94.7 52.9 6.9 0 12.1-1.7 15.3-4.8 12.9-12.9 0.9-61-48.1-110-22.4-22.4-47.1-39.3-69.8-47.7-9.5-3.6-18.1-5.3-25-5.3z"/> <path class="st14" d="m952.6 1452.2c-10.4 0-22.1-2.3-34.7-7-26.4-9.8-54.7-29-79.9-54.1-25.1-25.1-44.4-53.5-54.1-79.9-11.1-29.9-8.9-54.7 6.1-69.7s39.8-17.2 69.7-6.1c26.4 9.8 54.7 29 79.9 54.1 25.1 25.1 44.4 53.5 54.1 79.9 11.1 29.9 8.9 54.7-6.1 69.7-8.7 8.8-20.7 13.1-35 13.1zm-127.6-195.7c-6.7 0-12 1.6-15.2 4.9-12.9 12.9-0.9 61 48.1 110 37 37 73.5 52.9 94.7 52.9 6.9 0 12.1-1.7 15.3-4.8 12.9-12.9 0.9-61-48.1-110-22.4-22.4-47.1-39.3-69.8-47.7-9.5-3.6-18.1-5.3-25-5.3z"/> <path class="st14" d="m824.9 1274.4c-14.3 0-26.3-4.4-35-13.1-15-15-17.2-39.8-6.1-69.7 9.8-26.4 29-54.7 54.1-79.9 25.1-25.1 53.5-44.4 79.9-54.1 29.9-11.1 54.7-8.9 69.7 6.1s17.2 39.8 6.1 69.7c-9.8 26.4-29 54.7-54.1 79.9-25.1 25.1-53.5 44.4-79.9 54.1-12.6 4.7-24.3 7-34.7 7zm127.7-195.7c-7 0-15.5 1.8-24.9 5.3-22.7 8.4-47.4 25.3-69.8 47.7-48.9 48.9-61 97-48.1 110 12.9 12.9 61 0.9 110-48.1 22.4-22.4 39.3-47.1 47.7-69.8 6.9-18.5 7-33.5 0.4-40.2-3.4-3.3-8.6-4.9-15.3-4.9z"/> <path class="st14" d="m647.1 1452.2c-14.3 0-26.3-4.4-35-13.1-15-15-17.2-39.8-6.1-69.7 9.8-26.4 29-54.7 54.1-79.9 25.1-25.1 53.5-44.4 79.9-54.1 29.9-11.1 54.7-8.9 69.7 6.1s17.2 39.8 6.1 69.7c-9.8 26.4-29 54.7-54.1 79.9-25.1 25.1-53.5 44.4-79.9 54.1-12.6 4.7-24.3 7-34.7 7zm127.6-195.7c-7 0-15.5 1.8-24.9 5.3-22.7 8.4-47.4 25.3-69.8 47.7-48.9 48.9-61 97-48.1 110 6.6 6.6 21.6 6.5 40.2-0.4 22.7-8.4 47.4-25.3 69.8-47.7s39.3-47.1 47.7-69.8c6.9-18.5 7-33.5 0.4-40.2-3.3-3.3-8.5-4.9-15.3-4.9z"/> <path class="st14" d="m1392.9 1514h-408c-40.1 0-72.7-32.6-72.7-72.7v-8c0-4.5 2.2-8.7 5.8-11.4 3.7-2.6 8.4-3.3 12.6-1.9 17.1 5.8 30.9 5.5 37.1-0.7 6.1-6.1 6.4-19.6 1-36.3-6.7-20.4-21.1-43.4-40.5-64.8-3.6-4-4.7-9.8-2.6-14.8s6.9-8.4 12.3-8.6c28.8-1.4 55.3-7.5 74.5-17.2 15.6-7.9 24.9-17.7 24.9-26.3s-9.3-18.4-24.9-26.3c-19.2-9.7-45.6-15.8-74.5-17.2-5.4-0.3-10.2-3.6-12.3-8.6s-1.1-10.8 2.6-14.8c15.7-17.2 28.1-35.5 35.9-52.9 1.3-2.8 3.4-5.1 6.1-6.6 16.1-8.7 34.4-13.4 52.8-13.4h53.6c21.3 0 38.6-17.3 38.6-38.6v-95.1c0-7.7 6.3-14 14-14h119.3c7.7 0 14 6.3 14 14v95.1c0 21.3 17.3 38.6 38.6 38.6h53.6c61.1 0 110.8 49.7 110.8 110.8v218.7c0.1 40.4-32.5 73-72.6 73zm-451.6-62.6c4.6 19.8 22.4 34.6 43.5 34.6h408c24.6 0 44.7-20 44.7-44.7v-218.7c0-45.7-37.2-82.8-82.8-82.8h-53.6c-36.7 0-66.6-29.9-66.6-66.6v-81.1h-91.3v81.1c0 36.8-29.9 66.6-66.6 66.6h-53.6c-12.3 0-24.5 2.7-35.5 8-5.6 11.6-12.8 23.3-21.4 34.9 22.3 3.3 42.7 9.3 58.9 17.5 26 13.1 40.3 31.4 40.3 51.3s-14.3 38.2-40.3 51.3c-16.3 8.2-36.6 14.2-58.9 17.5 13.4 18.1 23.6 36.7 29.3 54.1 9.1 27.7 6.3 50.7-7.8 64.8-10.9 10.8-26.9 14.9-46.3 12.2z"/> <linearGradient id="k" x1="1071.9" x2="1277.8" y1="921.44" y2="921.44" gradientUnits="userSpaceOnUse"> <stop stop-color="#56659B" offset="0"/> <stop stop-color="#3E4680" offset=".9965"/> </linearGradient> <rect class="st9" x="1071.9" y="864.8" width="205.9" height="113.3"/> <path class="st14" d="m1291.8 992.1h-205.9c-7.7 0-14-6.3-14-14v-113.3c0-7.7 6.3-14 14-14h205.9c7.7 0 14 6.3 14 14v113.3c0 7.7-6.2 14-14 14zm-191.9-28h177.9v-85.3h-177.9v85.3z"/> <linearGradient id="j" x1="708.87" x2="862.85" y1="1251.5" y2="1251.5" gradientUnits="userSpaceOnUse"> <stop stop-color="#E85D7E" offset="0"/> <stop stop-color="#D13A55" offset="1"/> </linearGradient> <circle class="st10" cx="785.9" cy="1251.5" r="77"/> <path class="st14" d="m799.9 1342.5c-50.2 0-91-40.8-91-91s40.8-91 91-91 91 40.8 91 91-40.9 91-91 91zm0-154c-34.7 0-63 28.3-63 63s28.3 63 63 63 63-28.3 63-63c0-34.8-28.3-63-63-63z"/> </g> </switch> </svg>